<svg xmlns="http://www.w3.org/2000/svg" viewBox="0 0 128 128">
  <circle cx="64" cy="64" r="56" fill="#edf7fa"/>
  <g transform="translate(-72 -62) scale(0.98)">
  <path fill="#6f777c" d="M142.47,153.96c1.19-13.18,2.66-18.21,17.24-23.63c11.92-4.43,25.35-9.99,28.41-24.23c-1.55-1.8-7.82-12.02-24.38-10.14c-8.53,1.22-17.11,3.34-21.28,5.05c5.22-1.45,14.2-3.17,20.74-3.46c12.68-0.55,25.13,7.55,2.47,21.58C145.33,131.74,142.32,128.63,142.47,153.96"/>
  <path fill="#062751" d="M140.99,157.98c-55.01-35.22-59.53-71.19,0-56.82c-67.98-22.21-62.28,32.57,0,75.4V157.98z"/>
  <path fill="#062751" d="M175,93.45c6.71,1.46,10.76,5.21,14.8,9.59c1.53-5.1,2.39-10.37,0.32-15.55l0,0c-2.4-5.99-8-9-14.34-10.08c-12.32-2.09-23.2,3.78-33.33,9.71v11.25C151.66,95.1,165.12,91.3,175,93.45"/>
  <path fill="#6f777c" d="M140.99,103.76v13.77l-0.86-0.36c-15.32-7.72-34.26-8.82-27.64,6.47c7.36,14.33,16.96,22.6,28.5,32.2c-12.1-8.31-27.67-19.22-37.45-35.7c-5.75-10.35-2.52-18.24,11.26-20.15C123.93,99.4,131.98,101,140.99,103.76"/>
  </g>
</svg>
